<?xml version="1.0" encoding="UTF-8"?>
<svg id="_圖層_1" data-name=" 圖層 1" xmlns="http://www.w3.org/2000/svg" xmlns:xlink="http://www.w3.org/1999/xlink" viewBox="0 0 45 45">
  <defs>
    <style>
      .cls-1 {
        fill: #26598b;
      }

      .cls-2 {
        fill: #fff;
      }

      .cls-3 {
        fill: url(#_未命名漸層_6);
      }
    </style>
    <linearGradient id="_未命名漸層_6" data-name="未命名漸層 6" x1="57.38" y1="48.89" x2="58.56" y2="47.7" gradientTransform="translate(-845.16 751.48) scale(15.01 -14.99)" gradientUnits="userSpaceOnUse">
      <stop offset="0" stop-color="#572b7c"/>
      <stop offset=".55" stop-color="#56c4f1"/>
      <stop offset="1" stop-color="#00943f"/>
    </linearGradient>
  </defs>
  <g id="bg_copy" data-name="bg copy">
    <path class="cls-2" d="m26,44h-7c-4.81,0-9.33-1.87-12.73-5.27-3.4-3.4-5.27-7.92-5.27-12.73v-7c0-4.81,1.87-9.33,5.27-12.73,3.4-3.4,7.92-5.27,12.73-5.27h7c4.81,0,9.33,1.87,12.73,5.27,3.4,3.4,5.27,7.92,5.27,12.73v7c0,4.81-1.87,9.33-5.27,12.73s-7.92,5.27-12.73,5.27Z"/>
    <path class="cls-1" d="m19,2c-4.54,0-8.81,1.77-12.02,4.98-3.21,3.21-4.98,7.48-4.98,12.02v7c0,4.54,1.77,8.81,4.98,12.02,3.21,3.21,7.48,4.98,12.02,4.98h7c4.54,0,8.81-1.77,12.02-4.98,3.21-3.21,4.98-7.48,4.98-12.02v-7c0-4.54-1.77-8.81-4.98-12.02-3.21-3.21-7.48-4.98-12.02-4.98h-7m0-2h7c10.49,0,19,8.51,19,19v7c0,10.49-8.51,19-19,19h-7C8.51,45,0,36.49,0,26v-7C0,8.51,8.51,0,19,0Z"/>
  </g>
  <path id="icon_dowload" data-name="icon dowload" class="cls-3" d="m21.62,18.79v-3.16c-.01-.33.24-.6.57-.62.3,0,.56.24.58.54v.08s0,3.16,0,3.16h3.59c1.86.08,3.33,1.6,3.34,3.46v4.15c.06,1.85-1.33,3.44-3.18,3.61h-8.5c-1.86-.08-3.32-1.6-3.33-3.46v-4.14c-.06-1.85,1.32-3.43,3.17-3.61h3.76v5.05l-1.2-1.3c-.2-.23-.55-.25-.77-.04,0,0-.02.02-.03.03l-.02.02c-.2.23-.22.56-.06.81l.06.08,2.18,2.38c.19.23.54.25.76.06,0,0,0,0,0,0l.06-.06,2.18-2.38c.23-.25.23-.64,0-.89-.19-.22-.52-.24-.75-.06l-.06.06-1.19,1.3v-5.05h-1.16Z"/>
</svg>