<?xml version="1.0" encoding="UTF-8"?>
<svg xmlns:xodm="http://www.corel.com/coreldraw/odm/2003" xmlns="http://www.w3.org/2000/svg" xmlns:xlink="http://www.w3.org/1999/xlink" version="1.1" id="Layer_1" x="0px" y="0px" viewBox="0 0 2500 2500" style="enable-background:new 0 0 2500 2500;" xml:space="preserve">
<style type="text/css">
	.st0{fill-rule:evenodd;clip-rule:evenodd;}
	.st1{fill:#FFFFFF;}
</style>
<g id="Layer_x0020_1">
	<g id="_1704847923600">
		<path id="path854" class="st0" d="M2500,1250C2500,560,1940,0,1250,0S0,560,0,1250s560,1250,1250,1250S2500,1940,2500,1250z"></path>
		<path id="path876" class="st1" d="M696,538l-84,84l106,106l106,106l-9,26c-11,34-16,63-16,100c0,123,64,228,178,290    c46,25,125,53,212,76c170,44,197,51,230,67c46,22,69,45,78,81c4,16,4,50,0,67c-11,41-45,81-88,103c-58,30-159,39-235,19    c-28-7-68-27-88-43c-41-34-73-92-87-160c-2-11-4-20-4-20c-1-1-238,22-239,24c-1,1,0,10,1,22c7,53,26,117,48,161l13,26l-103,103    l-103,103l84,84l84,84l106-106l106-106l18,8c97,41,242,53,383,33c34-5,83-16,108-26l15-6l102,102l101,101l84-84l84-84l-94-94    l-94-94l12-24c25-49,35-91,37-149c4-110-25-193-90-261c-68-71-144-105-359-159c-152-38-217-64-243-97c-26-32-28-78-6-111    c13-19,45-40,80-51c39-13,105-19,154-14c103,11,155,55,178,151c3,12,5,22,6,22c0,1,168-5,218-8l29-1l-2-20c-3-41-11-78-26-116    l-8-22l104-105l104-104l-84-84l-84-84l-106,106l-106,106l-26-10c-63-24-124-34-214-37c-98-3-185,10-251,37l-25,10L885,560L779,454    l-84,84H696z"></path>
	</g>
</g>
</svg>
