<?xml version="1.0" encoding="UTF-8"?>
<svg xmlns:xodm="http://www.corel.com/coreldraw/odm/2003" xmlns="http://www.w3.org/2000/svg" xmlns:xlink="http://www.w3.org/1999/xlink" version="1.1" id="Layer_1" x="0px" y="0px" viewBox="0 0 2500 2500" style="enable-background:new 0 0 2500 2500;" xml:space="preserve">
<style type="text/css">
	.st0{fill:#00DCFA;}
	.st1{fill:#FFFFFF;}
</style>
<g id="Layer_x0020_1">
	<g id="_1704429657312">
		<path class="st0" d="M2500,1250C2500,560,1940,0,1250,0S0,560,0,1250s560,1250,1250,1250S2500,1940,2500,1250z"></path>
		<path class="st1" d="M1516,391c-305,0-563,234-594,531c-297,31-531,289-531,594c0,328,266,594,594,594c305,0,562-234,594-531    c297-31,531-289,531-594C2110,657,1844,391,1516,391z M1969,1055c-31,203-188,359-391,391v-391H1969z M531,1446    c31-203,188-359,391-391v391H531L531,1446z M1445,1579c-31,227-227,391-453,391c-227,0-422-164-453-391H1445L1445,1579z     M1445,1056v391h-391v-391H1445z M1968,923h-914c31-227,227-391,453-391C1741,524,1937,696,1968,923L1968,923z"></path>
	</g>
</g>
</svg>
