<?xml version="1.0" encoding="UTF-8"?>
<svg xmlns:xodm="http://www.corel.com/coreldraw/odm/2003" xmlns="http://www.w3.org/2000/svg" xmlns:xlink="http://www.w3.org/1999/xlink" version="1.1" id="Layer_1" x="0px" y="0px" viewBox="0 0 2500 2500" style="enable-background:new 0 0 2500 2500;" xml:space="preserve">
<style type="text/css">
	.st0{fill:none;}
	.st1{fill:#EFE812;}
	.st2{fill:#EDE70A;}
	.st3{fill:#DEC21C;}
	.st4{fill:#E5CB22;}
	.st5{fill:#CCA727;}
</style>
<g id="Layer_x0020_1">
	<g id="_1704650156704">
		<rect y="0" class="st0" width="2500" height="2500"></rect>
		<g>
			<g id="Group-3">
				<g id="Fill-1-Clipped">
					<g>
						<path id="Fill-1" class="st1" d="M696,378c48-54,91-100,133-139c-703-23-499,486-729,1002c-264,595,31,822,471,893        c-61-73-112-155-149-243C138,1532,253,879,696,378z"></path>
					</g>
				</g>
			</g>
			<g>
				<path id="Fill-4" class="st2" d="M2388,1012c-83,217-203,419-355,595c-122,148-268,275-431,374c-186,118-403,181-624,181      c-4,0-9,0-13,0c-7,0-15,0-23,0c-124,0-248-9-371-28c72,86,162,156,263,206c636,308,676-263,1349-553c378-163,379-481,204-774      l0,0L2388,1012z M2388,1012L2388,1012L2388,1012z"></path>
			</g>
			<g>
				<path id="Fill-6" class="st2" d="M1601,418c92,16,181,48,262,93c214,120,394,292,524,501c115-323,61-576-189-622      c-276-50-491-67-698-211C1245,2,1022,60,828,240l42,2c269,16,526,69,729,176l1,1L1601,418z M1601,418L1601,418L1601,418z"></path>
			</g>
			<path id="Fill-8" class="st3" d="M696,378C253,879,138,1532,423,1891c-57-134-86-279-86-425c0-192,51-381,148-547     c240-400,721-573,1117-501c-205-108-462-160-729-176l-42-2C788,280,744,324,696,378z"></path>
			<g>
				<path id="Fill-10" class="st4" d="M1864,511c-82-45-171-76-262-92c269,142,448,382,448,762c-3,326-172,628-448,801      c164-99,310-226,432-374c152-176,272-377,355-595c-130-208-310-381-524-501l0,0L1864,511z M1864,511L1864,511L1864,511z"></path>
			</g>
			<g>
				<path id="Fill-12" class="st5" d="M1601,418c-395-73-877,101-1117,499c-97,166-148,356-148,548c0,146,30,291,87,426      c37,88,87,170,149,243c122,18,246,28,370,28c7,0,15,0,23,0c4,0,9,0,13,0c221,0,437-63,624-181c276-173,445-475,448-801      c0-380-179-620-448-762l0,0H1601z M1557,1800c-106,68-229,104-355,104c-223,0-430-113-551-299c-196-303-99-694,195-903      c330-234,753-142,907,195c150,328,109,708-195,903l0,0H1557z M1557,1800L1557,1800L1557,1800z"></path>
			</g>
		</g>
	</g>
</g>
</svg>
