<?xml version="1.0" encoding="UTF-8"?>
<svg id="_圖層_1" data-name=" 圖層 1" xmlns="http://www.w3.org/2000/svg" xmlns:xlink="http://www.w3.org/1999/xlink" viewBox="0 0 46.28 42">
  <defs>
    <style>
      .cls-1 {
        fill: #fff;
      }

      .cls-2 {
        fill: url(#_未命名漸層_5);
      }
    </style>
    <linearGradient id="_未命名漸層_5" data-name="未命名漸層 5" x1="48.2" y1="64.11" x2="49.19" y2="63.16" gradientTransform="translate(-2226.29 2697.12) scale(46.28 -42)" gradientUnits="userSpaceOnUse">
      <stop offset="0" stop-color="#572b7c"/>
      <stop offset=".52" stop-color="#56c4f1"/>
      <stop offset="1" stop-color="#00943f"/>
    </linearGradient>
  </defs>
  <g id="Group_961" data-name="Group 961">
    <g id="Group_47" data-name="Group 47">
      <path id="Path_48" data-name="Path 48" class="cls-2" d="m1.44,0h43.4c.79,0,1.44,2.69,1.44,6v30c0,3.31-.64,6-1.44,6H1.44c-.8,0-1.44-2.69-1.44-6V6C0,2.69.64,0,1.44,0Z"/>
    </g>
    <g id="bx-reset">
      <path id="Path_49" data-name="Path 49" class="cls-1" d="m23.31,24.36c1.57,0,2.84-1.27,2.84-2.84s-1.27-2.84-2.84-2.84c-1.57,0-2.84,1.27-2.84,2.84,0,1.56,1.25,2.83,2.81,2.84.01,0,.02,0,.03,0Z"/>
      <path id="Path_50" data-name="Path 50" class="cls-1" d="m31.65,19.81c-.22-1.09-.66-2.12-1.28-3.05-.61-.91-1.39-1.69-2.3-2.3-1.41-.96-3.08-1.46-4.78-1.45v-1.89l-3.76,2.84,3.76,2.84v-1.89c3.66-.01,6.63,2.95,6.65,6.6,0,.89-.17,1.77-.52,2.6-.17.39-.37.77-.61,1.12-.24.35-.51.68-.81.98-.92.91-2.08,1.54-3.35,1.8-.88.18-1.79.18-2.67,0-3.08-.63-5.29-3.35-5.29-6.49h-1.89c0,4.7,3.81,8.51,8.51,8.52,1.7,0,3.36-.51,4.77-1.46.45-.3.87-.65,1.26-1.04.39-.39.73-.81,1.04-1.26.95-1.41,1.46-3.06,1.45-4.76,0-.58-.06-1.15-.17-1.72h0Z"/>
    </g>
  </g>
</svg>