<?xml version="1.0" encoding="UTF-8"?>
<svg id="_圖層_1" data-name=" 圖層 1" xmlns="http://www.w3.org/2000/svg" xmlns:xlink="http://www.w3.org/1999/xlink" viewBox="0 0 46.28 42">
  <defs>
    <style>
      .cls-1 {
        fill: #fff;
      }

      .cls-2 {
        fill: url(#_未命名漸層_4);
      }
    </style>
    <linearGradient id="_未命名漸層_4" data-name="未命名漸層 4" x1="48.33" y1="64.01" x2="49.29" y2="62.98" gradientTransform="translate(-2226.29 2697.12) scale(46.28 -42)" gradientUnits="userSpaceOnUse">
      <stop offset="0" stop-color="#572b7c"/>
      <stop offset=".3" stop-color="#5680bf"/>
      <stop offset=".53" stop-color="#56c4f1"/>
      <stop offset="1" stop-color="#00943f"/>
    </linearGradient>
  </defs>
  <g id="Group_955" data-name="Group 955">
    <g id="Group_47" data-name="Group 47">
      <path id="Path_48" data-name="Path 48" class="cls-2" d="m1.44,0h43.4c.79,0,1.44,2.69,1.44,6v30c0,3.31-.64,6-1.44,6H1.44c-.8,0-1.44-2.69-1.44-6V6C0,2.69.64,0,1.44,0Z"/>
    </g>
    <path id="Icon_ionic-md-search" data-name="Icon ionic-md-search" class="cls-1" d="m28.2,23.87h-.72l-.27-.23c.9-1.08,1.4-2.44,1.4-3.84-.02-3.23-2.65-5.82-5.88-5.8-3.23.02-5.82,2.65-5.8,5.88.02,3.22,2.64,5.81,5.86,5.8,1.4,0,2.76-.5,3.83-1.4l.27.23v.72l4.51,4.52,1.35-1.36-4.56-4.52Zm-5.41,0c-2.25,0-4.08-1.81-4.08-4.06,0-2.25,1.81-4.08,4.06-4.08s4.08,1.81,4.08,4.06c0,0,0,0,0,.01.01,2.24-1.79,4.06-4.02,4.07-.01,0-.02,0-.03,0Z"/>
  </g>
</svg>