<?xml version="1.0" encoding="UTF-8"?>
<svg id="_圖層_1" data-name=" 圖層 1" xmlns="http://www.w3.org/2000/svg" viewBox="0 0 28.86 28.86">
  <defs>
    <style>
      .cls-1 {
        fill: #fff;
      }

      .cls-2 {
        fill: #2775ca;
      }
    </style>
  </defs>
  <path id="Path_35" data-name="Path 35" class="cls-2" d="m14.43,28.86c7.97,0,14.43-6.46,14.43-14.43S22.4,0,14.43,0,0,6.46,0,14.43c-.02,7.95,6.41,14.41,14.36,14.43.02,0,.05,0,.07,0Z"/>
  <path id="Path_36" data-name="Path 36" class="cls-1" d="m18.86,16.61c0-1.99-1.41-2.68-4.22-2.96-2.01-.23-2.41-.68-2.41-1.48s.67-1.31,2.01-1.31c1.2,0,1.87.34,2.21,1.2.09.18.27.29.47.28h1.07c.23.02.44-.15.47-.38,0,0,0-.01,0-.02v-.06c-.38-1.36-1.6-2.31-3.01-2.34v-1.37c0-.23-.2-.4-.53-.46h-1.01c-.27,0-.49.19-.53.46v1.31c-2.01.23-3.28,1.37-3.28,2.79,0,1.88,1.34,2.62,4.15,2.91,1.87.28,2.48.63,2.48,1.54s-.94,1.54-2.21,1.54c-1.74,0-2.34-.63-2.54-1.48-.06-.21-.25-.35-.47-.34h-1.14c-.23-.02-.44.15-.47.38,0,0,0,.01,0,.02v.06c.27,1.42,1.34,2.45,3.55,2.73v1.37c0,.23.2.4.53.46h1c.27,0,.49-.19.53-.46v-1.37c2.02-.28,3.35-1.48,3.35-3.02Z"/>
  <path id="Path_37" data-name="Path 37" class="cls-1" d="m11.48,22.67c-4.46-1.61-6.77-6.52-5.17-10.98.87-2.41,2.76-4.3,5.17-5.17.23-.1.37-.33.35-.57v-.81c.02-.22-.13-.42-.35-.46-.08,0-.16.01-.23.06-5.44,1.69-8.48,7.48-6.79,12.92,1.01,3.24,3.55,5.78,6.79,6.79.17.1.39.04.48-.13.02-.03.03-.06.04-.1.06-.06.06-.12.06-.23v-.81c-.04-.21-.16-.4-.35-.52Zm6.13-17.93c-.17-.1-.39-.04-.48.13-.02.03-.03.06-.04.1-.06.06-.06.12-.06.23v.81c.02.24.15.45.35.57,4.46,1.61,6.77,6.52,5.17,10.98-.87,2.41-2.76,4.3-5.17,5.17-.23.1-.37.33-.35.57v.81c-.02.22.13.42.35.46.08,0,.16-.01.23-.06,5.44-1.69,8.48-7.46,6.8-12.9,0-.03-.02-.06-.03-.09-1.03-3.22-3.55-5.75-6.77-6.78Z"/>
</svg>