<?xml version="1.0" encoding="UTF-8"?>
<svg id="_圖層_1" data-name=" 圖層 1" xmlns="http://www.w3.org/2000/svg" viewBox="0 0 28.86 28.86">
  <defs>
    <style>
      .cls-1 {
        fill: #f5ac37;
      }

      .cls-2 {
        fill: #fefefd;
      }
    </style>
  </defs>
  <g id="Layer_1">
    <path id="Path_44" data-name="Path 44" class="cls-1" d="m14.43,0C22.4,0,28.86,6.46,28.86,14.43s-6.46,14.43-14.43,14.43S0,22.4,0,14.43C0,6.46,6.46,0,14.43,0h0Z"/>
    <path id="Path_45" data-name="Path 45" class="cls-2" d="m14.95,15.47h5.58c.12,0,.18,0,.18-.16.05-.57.05-1.15,0-1.72,0-.11-.05-.16-.18-.16h-11.1c-.14,0-.18.05-.18.18v1.65q0,.21.22.21h5.47Zm5.14-3.96s.02-.09,0-.13c-.09-.2-.2-.4-.33-.58-.19-.31-.42-.6-.68-.86-.12-.16-.26-.3-.42-.42-.79-.68-1.74-1.16-2.75-1.41-.51-.12-1.04-.17-1.56-.17h-4.93c-.14,0-.16.05-.16.18v3.29c0,.14,0,.18.18.18h10.59s.09-.02.11-.07h-.05,0Zm0,5.89c-.16-.02-.31-.02-.47,0h-10.18c-.14,0-.18,0-.18.19v3.21c0,.15,0,.19.18.19h4.7c.22.02.45,0,.67-.05.68-.05,1.35-.2,1.99-.44.23-.08.46-.19.67-.31h.06c1.1-.58,2-1.49,2.56-2.6,0,0,.06-.14,0-.18h0Zm-12.68,5.25v-5.12c0-.12,0-.14-.15-.14h-1.99c-.11,0-.16,0-.16-.15v-1.76h2.13c.12,0,.16,0,.16-.16v-1.74c0-.11,0-.14-.15-.14h-1.99c-.11,0-.16,0-.16-.15v-1.63c0-.1,0-.13.15-.13h1.97c.14,0,.18,0,.18-.18v-4.99c0-.15,0-.19.18-.19h6.88c.5.02,1,.08,1.49.17,1.01.19,1.98.55,2.87,1.07.59.35,1.13.77,1.62,1.26.36.38.69.79.98,1.23.29.45.53.92.72,1.42.02.13.14.22.27.2h1.64q.21,0,.22.2v1.52c0,.15-.05.19-.2.19h-1.27c-.13,0-.16,0-.16.17.05.56.05,1.13,0,1.69,0,.16,0,.18.18.18h1.45c.06.08,0,.17,0,.25,0,.11,0,.22,0,.32v1.12c0,.16-.05.2-.18.2h-1.74c-.12-.02-.24.06-.27.18-.41,1.08-1.07,2.06-1.93,2.84-.31.28-.64.55-.98.8-.37.21-.73.44-1.1.61-.69.31-1.42.55-2.17.69-.71.13-1.43.19-2.15.18h-6.37v-.02h0Z"/>
  </g>
</svg>