<?xml version="1.0" encoding="UTF-8"?>
<svg id="_圖層_1" data-name=" 圖層 1" xmlns="http://www.w3.org/2000/svg" viewBox="0 0 32.55 28.31">
  <defs>
    <style>
      .cls-1 {
        fill: #50af95;
      }

      .cls-1, .cls-2 {
        fill-rule: evenodd;
      }

      .cls-2 {
        fill: #fff;
      }
    </style>
  </defs>
  <g id="Group_9866" data-name="Group 9866">
    <g id="Group_9864" data-name="Group 9864">
      <g id="tether-usdt-logo">
        <g id="Group_22" data-name="Group 22">
          <path id="Path_33" data-name="Path 33" class="cls-1" d="m5.96.14L.02,12.6c-.05.1-.03.21.05.28l16.03,15.36c.09.09.24.09.34,0l16.03-15.36c.08-.07.1-.19.05-.28L26.59.14c-.04-.09-.12-.14-.22-.14H6.18c-.09,0-.18.05-.22.14h0Z"/>
          <path id="Path_34" data-name="Path 34" class="cls-2" d="m18.02,17.38h0c-.1.01-.6.06-1.72.06-.89,0-1.53-.04-1.75-.06h0c-3.45-.22-6.03-1.11-6.03-2.18s2.58-1.95,6.03-2.18v3.47c.59.06,1.18.08,1.76.08.57,0,1.14-.02,1.71-.08v-3.47c3.44.23,6.01,1.12,6.01,2.18s-2.57,1.95-6.01,2.18h0Zm0-4.71v-3.1h4.81v-4.74h-13.09v4.74h4.81v3.1c-3.91.26-6.84,1.41-6.84,2.78s2.94,2.51,6.84,2.78v9.95h3.47v-9.95c3.9-.26,6.83-1.41,6.83-2.78s-2.93-2.51-6.83-2.78h0Z"/>
        </g>
      </g>
    </g>
  </g>
</svg>